<?xml version="1.0" encoding="UTF-8"?>
<svg width="112px" height="40px" viewBox="0 0 112 40" version="1.1" xmlns="http://www.w3.org/2000/svg" xmlns:xlink="http://www.w3.org/1999/xlink">
    <title>DCB3C871-8F8A-4BDF-B9FA-7647647C031F@1.5x</title>
    <g id="Page-1" stroke="none" stroke-width="1" fill="none" fill-rule="evenodd">
        <g id="discount-01--copy" transform="translate(-1693.000000, -43.000000)" fill="#4DA71A">
            <g id="logo-landing-1" transform="translate(1693.000000, 43.000000)">
                <path d="M10.945,19.975 C17.01,19.975 20.926,17.635 20.926,11.031 L20.926,5.824 C20.926,1.674 20.197,0.203 17.318,0.203 L10.79,0.203 L10.79,5.145 L12.633,5.145 C13.631,5.145 13.746,5.56 13.746,7.9 L13.746,11.673 C13.746,13.673 12.825,14.956 10.944,14.956 C9.024,14.956 8.026,13.749 8.026,11.673 L8.026,0.203 L0.963,0.203 L0.963,11.03 C0.963,17.559 4.994,19.974 10.945,19.974 L10.945,19.975 Z M30.223,19.484 C31.797,19.484 32.565,18.504 32.565,14.541 L32.565,7.07 C32.565,2.127 32.027,0.203 28.802,0.203 L22.276,0.203 L22.276,5.146 L24.234,5.146 C25.225,5.146 25.338,6.112 25.346,7.319 L25.346,12.654 C25.346,14.39 25.156,14.541 24.656,14.541 L21.24,14.541 L21.24,19.484 L30.224,19.484 L30.223,19.484 Z M41.818,19.484 L41.818,3.938 C41.818,1.712 40.667,0.203 37.941,0.203 L33.641,0.203 L33.641,5.145 C34.332,5.145 34.639,5.523 34.639,6.24 L34.639,19.484 L41.819,19.484 L41.818,19.484 Z M53.878,19.484 C57.716,19.484 62.86,17.144 62.86,8.314 C62.86,1.6 61.21,0.204 57.448,0.204 L42.974,0.204 L42.974,5.147 L53.493,5.147 C55.105,5.147 55.489,5.562 55.489,9.108 C55.489,12.881 53.915,14.542 51.689,14.542 L51.689,19.485 L53.877,19.485 L53.878,19.484 Z M73.996,19.974 C79.178,19.974 83.939,18.163 83.939,11.183 L83.939,4.315 C83.939,1.07 82.519,0.203 80.753,0.203 L67.123,0.203 C65.243,0.203 63.899,1.146 63.899,4.315 L63.899,11.183 C63.899,18.012 69.043,19.974 73.996,19.974 L73.996,19.974 Z M93.156,11.334 L93.156,3.938 C93.156,1.712 92.389,0.202 89.663,0.202 L85.018,0.202 L85.018,5.145 C85.786,5.145 85.978,5.523 85.978,6.24 L85.978,11.334 L93.157,11.334 L93.156,11.334 Z M108.561,19.484 L108.561,8.919 C108.561,6.957 108.945,5.636 109.713,5.145 L111.901,5.145 L111.901,0.203 L94.165,0.203 L94.165,5.145 L103.839,5.145 C102.764,5.825 101.42,7.56 101.42,10.353 L101.42,19.483 L108.561,19.483 L108.561,19.484 Z M73.996,14.955 C72.114,14.955 71.001,13.749 71.001,11.673 L71.001,7.146 C71.001,5.561 71.154,5.146 72.153,5.146 L75.723,5.146 C76.721,5.146 76.836,5.561 76.836,7.146 L76.836,11.673 C76.836,13.786 75.877,14.955 73.996,14.955 L73.996,14.955 Z M50.153,26.358 L50.153,8.462 L43.128,8.462 L43.128,26.358 L50.153,26.358 Z M54.986,39.93 C70.86,39.93 94.236,37.05 107.226,27.551 C107.303,27.495 108.165,26.862 108.473,26.584 C108.559,26.506 108.712,26.328 108.835,26.144 C108.991,25.911 109.063,25.769 109.157,25.503 C109.407,24.791 109.393,24.333 109.351,23.581 C109.309,22.818 109.21,22.221 108.937,21.665 C108.875,21.54 108.832,21.455 108.707,21.389 C108.681187,21.3752537 108.65359,21.3651573 108.625,21.359 L108.539,21.352 C108.366,21.356 108.187,21.466 108.108,21.528 C96.293,30.72 69.778,32.882 54.971,32.882 L54.571,32.882 C39.761,32.882 13.248,30.72 1.433,21.528 C1.33148979,21.4481565 1.21373466,21.3914975 1.088,21.362 L1.002,21.352 C0.943426639,21.3496458 0.88523136,21.3623867 0.833,21.389 C0.709,21.454 0.666,21.54 0.604,21.665 C0.332,22.22 0.232,22.818 0.19,23.581 C0.148,24.333 0.134,24.791 0.384,25.503 C0.477,25.769 0.55,25.911 0.706,26.143 C0.829,26.328 0.982,26.506 1.068,26.583 C1.376,26.863 2.238,27.495 2.315,27.551 C15.305,37.05 38.681,39.931 54.555,39.931 L54.986,39.93 Z" id="Shape"></path>
            </g>
        </g>
    </g>
</svg>